<?xml version="1.0" encoding="UTF-8" standalone="no"?> <svg id="Layer_1" data-name="Layer 1" xmlns="http://www.w3.org/2000/svg" viewBox="0 0 128 128"><defs><style>.cls-1{fill:#2d3e50;}.cls-2{fill:#1d75b8;}</style></defs><title>b</title><path class="cls-1" d="M13.32739,53.91325a5.53425,5.53425,0,0,0,5.43509,4.483h.00025a5.53425,5.53425,0,0,0,5.43509-4.483l.84712-4.35566a5.83348,5.83348,0,0,0-5.78-6.6195H18.26022a5.83348,5.83348,0,0,0-5.78,6.6195Z"/><path class="cls-1" d="M36.69234,75.51l-1.39047-5.51765-1.26439-5.02687c-.00341-.00678-.00341-.017-.00682-.0238a3.04559,3.04559,0,0,0-2.35154-2.1812l-8.44174-1.76193L20.7052,63.53408,19.342,64.89388l-.44645.44989-.13292-.13292-.13292.13292-.44645-.44989L16.82,63.53408l-2.53218-2.53557L5.8461,62.76044a3.04559,3.04559,0,0,0-2.35154,2.1812c-.00341.00678-.00341.017-.00682.0238L2.22334,69.99231.83287,75.51l-.09544.37147a1.986,1.986,0,0,0-.05452.51462L.9317,86.86555a2.54437,2.54437,0,0,0,5.0848.06819l.50441-9.85268L8.95423,71.267v21.4707a9.66939,9.66939,0,0,0,9.67545,9.67545c.04431,0,.08861,0,.13292-.00341.04431.00341.08861.00341.13292.00341A9.66563,9.66563,0,0,0,28.571,92.73765V71.267l2.43333,5.81411.50441,9.85268a2.54437,2.54437,0,0,0,5.0848-.06819L36.84229,76.396a1.986,1.986,0,0,0-.05452-.51462Z"/><path class="cls-1" d="M103.80218,53.91325a5.53425,5.53425,0,0,0,5.43509,4.483h.00025a5.53425,5.53425,0,0,0,5.43509-4.483l.84712-4.35566a5.83348,5.83348,0,0,0-5.78-6.6195H108.735a5.83348,5.83348,0,0,0-5.78,6.6195Z"/><path class="cls-1" d="M127.26256,75.88143l-.09544-.37147-1.39047-5.51765-1.26439-5.02687c-.00341-.00678-.00341-.017-.00682-.0238a3.04559,3.04559,0,0,0-2.35154-2.1812l-8.44174-1.76193L111.18,63.53408l-1.36322,1.35981-.44645.44989-.13292-.13292-.13292.13292-.44645-.44989-1.36322-1.35981-2.53218-2.53557-8.44174,1.76193a3.04559,3.04559,0,0,0-2.35154,2.1812c-.00341.00678-.00341.017-.00682.0238l-1.26439,5.02687L91.30766,75.51l-.09544.37147a1.986,1.986,0,0,0-.05452.51462l.24878,10.46951a2.54437,2.54437,0,0,0,5.0848.06819l.50441-9.85268L99.429,71.267v21.4707a9.66939,9.66939,0,0,0,9.67545,9.67545c.04431,0,.08861,0,.13292-.00341.04431.00341.08861.00341.13292.00341a9.66563,9.66563,0,0,0,9.67545-9.67545V71.267l2.43333,5.81411.50441,9.85268a2.54437,2.54437,0,0,0,5.0848-.06819l.24878-10.46951A1.986,1.986,0,0,0,127.26256,75.88143Z"/><path class="cls-2" d="M57.00061,39.764a7.15136,7.15136,0,0,0,14.04149,0l1.09428-5.62634a7.53539,7.53539,0,0,0-7.46625-8.55074H63.37258a7.53537,7.53537,0,0,0-7.46623,8.55074Z"/><path class="cls-2" d="M87.05528,63.88212l-1.81895-3.36728-4.472-8.27408a4.53807,4.53807,0,0,0-.69-.962,2.67,2.67,0,0,0-1.41412-.7706c-1.84456-.38078-6.90839-1.41818-8.09979-1.577a1.55608,1.55608,0,0,0-.63.04435l-.16859-.05766L66.4877,52.192l-1.76131,1.7569-.57673.58114-.1283-.12826V54.359L64,54.38036l-.02136-.02138v.04277l-.1283.12826-.57673-.58114L61.5123,52.192l-3.27413-3.27413-.16859.05766a1.55608,1.55608,0,0,0-.63-.04435c-1.1914.15884-6.25526,1.19623-8.09979,1.577a2.67,2.67,0,0,0-1.41414.7706,4.53873,4.53873,0,0,0-.69.962l-4.472,8.27408-1.81895,3.36728-.20408.37712a3.31241,3.31241,0,0,0-.03549,3.04786L46.80975,79.401A3.10518,3.10518,0,0,0,50.77156,80.865a2.96258,2.96258,0,0,0,.58118-.32383v9.37429a12.48889,12.48889,0,0,0,12.49759,12.49762c.05017,0,.09976-.00262.14966-.00383.0499.00121.09949.00383.14966.00383A12.48422,12.48422,0,0,0,76.64726,89.91549V80.5412a2.96258,2.96258,0,0,0,.58118.32383A3.10518,3.10518,0,0,0,81.19025,79.401L87.29483,67.3071a3.31242,3.31242,0,0,0-.03547-3.04786ZM51.35274,74.23689l-3.32295-7.92354L51.35274,61.899Zm25.29452,0V61.899l3.32295,4.41432Z"/></svg>