<svg height="512" viewBox="0 0 60 59" width="512" xmlns="http://www.w3.org/2000/svg"><g id="Page-1" fill="none" fill-rule="evenodd"><g id="012---Perfume" fill-rule="nonzero" transform="translate(-2)"><path id="Shape" d="m26 14.83v-3.83c.0032948-1.10320187.8967981-1.9967052 2-2h8c1.1032019.0032948 1.9967052.89679813 2 2v3.83z" fill="#f0c419"/><path id="Shape" d="m38 11v3.83h-4v-3.83c-.0032948-1.10320187-.8967981-1.9967052-2-2h4c1.1032019.0032948 1.9967052.89679813 2 2z" fill="#f29c1f"/><circle id="Oval" cx="32" cy="36" fill="#b49aca" r="22"/><path id="Shape" d="m51.95 45.27c-4.5865407 9.882989-15.7160409 14.9201482-26.1680383 11.8435305-10.4519974-3.0766178-17.07764033-13.340126-15.5784244-24.1318904 1.4992159-10.7917644 10.6716249-18.8605722 21.5664627-18.9716401-5.25 6.95-11.54 18.33-1.93 24.51 5.44 3.5 12.2 1.24 17.94 3.71 1.5963968.694779 3.0201353 1.7327083 4.17 3.04z" fill="#955ba5"/><path id="Shape" d="m29 19.25c-.5195171-.0009021-.9518159-.3994681-.9948301-.9172022s.3175847-.9821753.8298301-1.0687978c1.0458506-.1756399 2.1045035-.2639445 3.165-.264.5522847 0 1 .4477153 1 1s-.4477153 1-1 1c-.949566.0001979-1.8974804.079135-2.834.236-.054816.0095237-.1103633.0142084-.166.014z" fill="#fff"/><path id="Shape" d="m19.758 23.815c-.4109413-.0001252-.7799714-.2516404-.9303424-.6340816-.1503709-.3824413-.0514666-.8179422.2493424-1.0979184 1.3361802-1.2423963 2.8439139-2.2863933 4.477-3.1.493494-.2412059 1.0891622-.039214 1.3341516.4524127.2449894.4916268.0475788 1.0888289-.4421516 1.3375873-1.4617329.7291489-2.8114481 1.6639817-4.008 2.776-.1850357.1712085-.4279077.2662143-.68.266z" fill="#fff"/><path id="Shape" d="m6 59h-3c-.55228475 0-1-.4477153-1-1s.44771525-1 1-1h3c.55228475 0 1 .4477153 1 1s-.44771525 1-1 1z" fill="#3d324c"/><path id="Shape" d="m61 59h-51c-.55228475 0-1-.4477153-1-1s.44771525-1 1-1h51c.5522847 0 1 .4477153 1 1s-.4477153 1-1 1z" fill="#3d324c"/><path id="Shape" d="m30 0h4c1.1045695 0 2 .8954305 2 2v7h-8v-7c0-1.1045695.8954305-2 2-2z" fill="#bdc3c7"/><path id="Shape" d="m18.75 9.1c2.4285913-2.41719774 5.866053-3.52833403 9.25-2.99v-4.02c-4.2773335-.52013891-8.5661739.87410017-11.72 3.81z" fill="#547580"/><ellipse id="Oval" cx="10.873" cy="12.364" fill="#ff5364" rx="9" ry="5" transform="matrix(.812 -.583 .583 .812 -5.17 8.66)"/><circle id="Oval" cx="40" cy="5" fill="#7d6599" r="1"/><circle id="Oval" cx="33" cy="5" fill="#3d324c" r="1"/><g fill="#7d6599"><circle id="Oval" cx="44" cy="3" r="1"/><circle id="Oval" cx="44" cy="7" r="1"/><circle id="Oval" cx="48" cy="1" r="1"/><circle id="Oval" cx="48" cy="5" r="1"/><circle id="Oval" cx="48" cy="9" r="1"/></g><path id="Shape" d="m32 30.5s2.15-4.5 7-4.5c4.144 0 7 3.583 7 7.828 0 5.462-4.93 10.072-12.3 16.538-.9750296.8471385-2.4249704.8471385-3.4 0-7.37-6.466-12.3-11.076-12.3-16.538 0-4.245 2.856-7.828 7-7.828 4.85 0 7 4.5 7 4.5z" fill="#ff5364"/><path id="Shape" d="m43.12 41.08c-2.16 2.84-5.44 5.79-9.42 9.29-.9777412.8398518-2.4222588.8398518-3.4 0-7.37-6.47-12.3-11.08-12.3-16.54 0-4.25 2.86-7.83 7-7.83.12 0 .24 0 .36.01-1.22 4.68-.52 9.3 4.48 12.51 4.02 2.59 8.76 2.03 13.28 2.56z" fill="#df4d60"/><path id="Shape" d="m22 34.828c-.5522847 0-1-.4477153-1-1 0-2.399 1.374-4.828 4-4.828.5522847 0 1 .4477153 1 1s-.4477153 1-1 1c-1.467 0-2 1.691-2 2.828 0 .5522847-.4477153 1-1 1z" fill="#fff"/></g></g></svg>