<svg height="436pt" viewBox="-19 0 436 436.96128" width="436pt" xmlns="http://www.w3.org/2000/svg"><path d="m248.1875 20.125-1.671875 3.117188 2.921875-2.433594zm0 0" fill="#d7e9ff"/><path d="m246.519531 30.066406c-1.527343 0-3.058593-.511718-4.3125-1.53125-2.535156-2.066406-3.246093-5.632812-1.707031-8.511718l1.667969-3.113282c.859375-1.605468 2.316406-2.800781 4.058593-3.320312 1.753907-.519532 3.621094-.320313 5.21875.539062l1.25.679688c1.988282 1.082031 3.3125 3.074218 3.539063 5.328125.222656 2.25-.683594 4.464843-2.425781 5.917969l-2.917969 2.433593c-1.265625 1.050781-2.820313 1.578125-4.371094 1.578125zm0 0" fill="#0e65e5"/><path d="m338.046875 68.230469-22.480469 59.035156v65.078125l67.8125-32.894531zm0 0" fill="#5c9eff"/><path d="m315.566406 199.167969c-1.265625 0-2.523437-.347657-3.625-1.039063-1.992187-1.246094-3.203125-3.433594-3.203125-5.789062v-65.070313c0-.835937.148438-1.65625.445313-2.429687l22.480468-59.039063c.96875-2.539062 3.339844-4.261719 6.046876-4.394531 2.78125-.199219 5.242187 1.355469 6.449218 3.78125l45.332032 91.21875c.808593 1.632812.933593 3.519531.34375 5.246094-.585938 1.722656-1.839844 3.140625-3.480469 3.933594l-67.8125 32.894531c-.941407.460937-1.960938.6875-2.976563.6875zm6.824219-70.648438v52.921875l51.808594-25.128906-35.324219-71.078125zm0 0" fill="#0e65e5"/><path d="m315.566406 192.34375v17.039062l76.148438-31.128906-8.335938-18.804687zm0 0" fill="#fff"/><path d="m315.566406 216.207031c-1.339844 0-2.664062-.390625-3.808594-1.160156-1.886718-1.265625-3.019531-3.394531-3.019531-5.667969v-17.039062c0-2.613282 1.492188-5 3.847657-6.140625l67.8125-32.890625c1.664062-.820313 3.582031-.898438 5.324218-.273438 1.742188.640625 3.144532 1.953125 3.894532 3.648438l8.335937 18.804687c.75 1.6875.785156 3.609375.09375 5.3125-.6875 1.714844-2.042969 3.074219-3.75 3.773438l-76.148437 31.128906c-.835938.335937-1.710938.503906-2.582032.503906zm6.824219-19.59375v2.601563l60.234375-24.621094-2.625-5.921875zm0 0" fill="#0e65e5"/><path d="m263.832031 28.660156-14.394531-7.851562-2.921875 2.433594-35.109375 65.539062 41.777344 25.066406zm0 0" fill="#fff"/><path d="m253.179688 120.671875c-1.21875 0-2.433594-.324219-3.511719-.972656l-41.777344-25.066407c-3.121094-1.871093-4.222656-5.867187-2.503906-9.078124l35.113281-65.539063c.414062-.773437.972656-1.453125 1.648438-2.019531l2.917968-2.433594c2.152344-1.789062 5.183594-2.09375 7.640625-.75l14.394531 7.855469c2.464844 1.347656 3.855469 4.058593 3.503907 6.839843l-10.648438 85.1875c-.289062 2.292969-1.710937 4.28125-3.789062 5.292969-.941407.460938-1.964844.683594-2.988281.683594zm-32.683594-34.398437 27.210937 16.328124 8.773438-70.175781-5.523438-3.011719zm0 0" fill="#0e65e5"/><path d="m244.40625 29.6875 5.121094-9.558594-.367188-.203125c0-7.34375-6.027344-13.246093-13.367187-13.09375-13.996094.285157-55.882813.285157-69.875 0-7.339844-.152343-13.367188 5.75-13.367188 13.09375l-.371093.203125 5.121093 9.558594c13.550781-2.832031 28.21875-4.394531 43.554688-4.394531 15.335937 0 30.003906 1.5625 43.550781 4.394531zm0 0" fill="#fff"/><path d="m157.296875 36.515625c-2.472656 0-4.804687-1.355469-6.011719-3.601563l-5.121094-9.558593c-1.003906-1.875-1.042968-4-.300781-5.820313.53125-4.488281 2.554688-8.628906 5.835938-11.839844 3.855469-3.773437 8.992187-5.6679682 14.351562-5.695312 13.988281.292969 55.617188.292969 69.597657 0 5.304687.0195312 10.503906 1.921875 14.359374 5.695312 3.425782 3.359376 5.484376 7.71875 5.898438 12.445313.570312 1.699219.515625 3.574219-.363281 5.207031l-5.117188 9.558594c-1.429687 2.675781-4.484375 4.089844-7.414062 3.460938-26.972657-5.640626-57.355469-5.640626-84.3125 0-.46875.101562-.9375.148437-1.402344.148437zm2.121094-17.328125 1.519531 2.832031c25.738281-4.71875 54.078125-4.71875 79.835938 0l1.515624-2.832031c-.164062-1.417969-.804687-2.726562-1.835937-3.738281-1.21875-1.1875-2.8125-1.761719-4.523437-1.792969-14.097657.292969-56.058594.292969-70.15625 0-1.753907-.046875-3.304688.597656-4.515626 1.792969-1.035156 1.011719-1.675781 2.320312-1.839843 3.738281zm0 0" fill="#0e65e5"/><path d="m244.40625 29.6875c-13.546875-2.832031-28.21875-4.394531-43.554688-4.394531-15.335937 0-30.003906 1.5625-43.554687 4.394531l43.554687 73.621094zm0 0" fill="#d7e9ff"/><path d="m200.855469 110.132812c-2.414063 0-4.648438-1.269531-5.875-3.351562l-43.554688-73.621094c-1.121093-1.890625-1.257812-4.214844-.371093-6.226562.886718-2.011719 2.691406-3.480469 4.851562-3.925782 28.789062-6.027343 61.09375-6.027343 89.898438 0 2.15625.445313 3.960937 1.914063 4.851562 3.925782.886719 2.015625.75 4.335937-.371094 6.226562l-43.554687 73.621094c-1.230469 2.082031-3.460938 3.351562-5.875 3.351562zm-32.695313-75.5 32.695313 55.265626 32.691406-55.265626c-21.191406-3.332031-44.191406-3.332031-65.386719 0zm0 0" fill="#0e65e5"/><path d="m150.835938 20.125 1.671874 3.117188-2.921874-2.433594zm0 0" fill="#d7e9ff"/><path d="m152.503906 30.066406c-1.550781 0-3.105468-.527344-4.371094-1.578125l-2.917968-2.433593c-1.742188-1.453126-2.648438-3.667969-2.425782-5.921876.226563-2.253906 1.550782-4.246093 3.539063-5.324218l1.25-.679688c1.605469-.859375 3.472656-1.0625 5.21875-.539062 1.742187.519531 3.199219 1.710937 4.058594 3.316406l1.667969 3.113281c1.539062 2.882813.828124 6.449219-1.707032 8.515625-1.253906 1.019532-2.785156 1.53125-4.3125 1.53125zm0 0" fill="#0e65e5"/><path d="m263.832031 28.660156-10.648437 85.1875-41.777344-25.066406-11.894531 22.203125-11.894531-22.203125-41.777344 25.066406-10.648438-85.1875-74.214844 39.570313 22.480469 59.035156v302.867187h232.109375v-302.867187l22.480469-59.035156zm0 0" fill="#d7e9ff"/><path d="m315.566406 436.960938h-232.109375c-3.769531 0-6.824219-3.054688-6.824219-6.828126v-301.613281l-22.035156-57.867187c-1.222656-3.210938.132813-6.832032 3.167969-8.449219l74.210937-39.570313c1.984376-1.046874 4.359376-1.074218 6.359376-.03125 1.992187 1.03125 3.351562 2.984376 3.628906 5.210938l9.351562 74.789062 32.789063-19.675781c1.605469-.957031 3.535156-1.226562 5.328125-.726562 1.800781.492187 3.320312 1.714843 4.203125 3.359375l5.875 10.96875 5.875-10.96875c.882812-1.644532 2.398437-2.867188 4.199219-3.359375 1.796874-.5 3.726562-.234375 5.332031.726562l32.789062 19.675781 9.351563-74.789062c.277344-2.226562 1.636718-4.179688 3.628906-5.210938 2-1.042968 4.371094-1.015624 6.359375.03125l74.210937 39.570313c3.035157 1.617187 4.390626 5.238281 3.167969 8.449219l-22.035156 57.867187v301.613281c0 3.773438-3.054687 6.828126-6.824219 6.828126zm-225.28125-13.652344h218.453125v-296.039063c0-.835937.148438-1.65625.445313-2.429687l20.339844-53.417969-60.148438-32.066406-9.421875 75.339843c-.285156 2.292969-1.707031 4.28125-3.785156 5.292969-2.074219 1.007813-4.523438.898438-6.5-.285156l-35.632813-21.378906-8.507812 15.886719c-2.375 4.441406-9.660156 4.441406-12.035156 0l-8.507813-15.886719-35.628906 21.378906c-1.988281 1.183594-4.433594 1.292969-6.5.285156-2.078125-1.011719-3.503907-3-3.789063-5.292969l-9.421875-75.339843-60.148437 32.066406 20.339844 53.417969c.296874.773437.449218 1.59375.449218 2.429687zm0 0" fill="#0e65e5"/><path d="m60.976562 68.230469 22.480469 59.035156v65.078125l-67.8125-32.894531zm0 0" fill="#5c9eff"/><path d="m83.457031 199.167969c-1.015625 0-2.035156-.226563-2.980469-.6875l-67.8125-32.894531c-1.636718-.792969-2.890624-2.210938-3.476562-3.933594-.59375-1.726563-.464844-3.613282.34375-5.246094l45.332031-91.21875c1.207031-2.425781 3.648438-3.972656 6.449219-3.78125 2.703125.132812 5.078125 1.855469 6.042969 4.394531l22.480469 59.039063c.296874.773437.449218 1.59375.449218 2.429687v65.070313c0 2.355468-1.210937 4.542968-3.203125 5.789062-1.101562.691406-2.359375 1.039063-3.625 1.039063zm-58.632812-42.855469 51.808593 25.128906v-52.921875l-16.484374-43.285156zm0 0" fill="#0e65e5"/><path d="m83.457031 192.34375v17.039062l-76.152343-31.128906 8.339843-18.804687zm0 0" fill="#fff"/><path d="m83.457031 216.207031c-.871093 0-1.75-.167969-2.582031-.507812l-76.152344-31.125c-1.703125-.699219-3.058594-2.058594-3.746094-3.773438-.691406-1.707031-.660156-3.625.09375-5.3125l8.335938-18.808593c.75-1.691407 2.152344-3.007813 3.890625-3.644532 1.742187-.628906 3.660156-.546875 5.328125.269532l67.8125 32.894531c2.355469 1.140625 3.847656 3.527343 3.847656 6.140625v17.039062c0 2.273438-1.132812 4.398438-3.019531 5.667969-1.144531.769531-2.472656 1.160156-3.808594 1.160156zm-67.058593-41.613281 60.234374 24.621094v-2.601563l-57.613281-27.9375zm0 0" fill="#0e65e5"/><path d="m135.191406 28.660156 14.394532-7.851562 2.921874 2.433594 35.109376 65.539062-41.777344 25.066406zm0 0" fill="#fff"/><g fill="#0e65e5"><path d="m145.84375 120.671875c-1.023438 0-2.042969-.226563-2.988281-.683594-2.078125-1.015625-3.5-3-3.789063-5.296875l-10.648437-85.183594c-.347657-2.78125 1.039062-5.496093 3.503906-6.839843l14.394531-7.855469c2.457032-1.347656 5.492188-1.054688 7.640625.746094l2.921875 2.433594c.671875.566406 1.230469 1.246093 1.644532 2.023437l35.113281 65.539063c1.71875 3.210937.617187 7.207031-2.503907 9.078124l-41.777343 25.066407c-1.078125.648437-2.292969.972656-3.511719.972656zm-3.300781-88.246094 8.773437 70.175781 27.210938-16.328124-30.460938-56.859376zm0 0"/><path d="m199.511719 170.722656c-3.769531 0-6.828125-3.054687-6.828125-6.828125v-54.613281c0-3.773438 3.058594-6.828125 6.828125-6.828125s6.828125 3.054687 6.828125 6.828125v54.613281c0 3.773438-3.058594 6.828125-6.828125 6.828125zm0 0"/><path d="m315.566406 430.132812h-232.109375c0-18.851562 15.28125-34.132812 34.132813-34.132812h163.839844c18.855468 0 34.136718 15.28125 34.136718 34.132812zm0 0"/><path d="m315.566406 436.960938h-232.109375c-3.769531 0-6.824219-3.054688-6.824219-6.828126 0-22.585937 18.371094-40.957031 40.957032-40.957031h163.839844c22.585937 0 40.960937 18.371094 40.960937 40.957031 0 3.773438-3.054687 6.828126-6.824219 6.828126zm-224.417968-13.652344h216.726562c-3.039062-11.769532-13.746094-20.480469-26.445312-20.480469h-163.839844c-12.699219 0-23.402344 8.710937-26.441406 20.480469zm0 0"/></g><path d="m151.726562 430.132812c-3.773437 0-6.828124-3.050781-6.828124-6.824218v-27.308594c0-3.773438 3.054687-6.824219 6.828124-6.824219 3.769532 0 6.824219 3.050781 6.824219 6.824219v27.308594c0 3.773437-3.054687 6.824218-6.824219 6.824218zm0 0" fill="#fff"/><path d="m165.378906 416.480469h-27.308594c-3.769531 0-6.824218-3.050781-6.824218-6.824219s3.054687-6.828125 6.824218-6.828125h27.308594c3.769532 0 6.824219 3.054687 6.824219 6.828125s-3.054687 6.824219-6.824219 6.824219zm0 0" fill="#fff"/><path d="m103.9375 136.589844c-2.761719 0-5.363281-1.6875-6.390625-4.429688l-20.480469-54.613281c-1.230468-3.273437.214844-6.945313 3.339844-8.503906l27.304688-13.65625c3.386718-1.679688 7.476562-.320313 9.160156 3.054687 1.6875 3.375.320312 7.472656-3.054688 9.160156l-21.808594 10.90625 18.324219 48.851563c1.320313 3.535156-.464843 7.46875-3.996093 8.792969-.792969.296875-1.601563.4375-2.398438.4375zm0 0" fill="#fff"/></svg>