<?xml version="1.0" encoding="iso-8859-1"?>
<!-- Generator: Adobe Illustrator 19.0.0, SVG Export Plug-In . SVG Version: 6.00 Build 0)  -->
<svg version="1.1" id="Capa_1" xmlns="http://www.w3.org/2000/svg" xmlns:xlink="http://www.w3.org/1999/xlink" x="0px" y="0px"
	 viewBox="0 0 512 512" style="enable-background:new 0 0 512 512;" xml:space="preserve">
<g>
	<path style="fill:#363C3F;" d="M154.952,474.88v21.392c0,8.736-6.992,15.728-15.728,15.728c-8.576,0-15.568-6.992-15.568-15.728
		V474.88H154.952z"/>
	<path style="fill:#363C3F;" d="M388.28,474.88v21.392c0,8.736-6.992,15.728-15.728,15.728c-8.576,0-15.568-6.992-15.568-15.728
		V474.88H388.28z"/>
</g>
<g>
	<rect x="299.912" y="53.376" style="fill:#CBD6E0;" width="16.656" height="68.656"/>
	<rect x="195.368" y="53.376" style="fill:#CBD6E0;" width="16.656" height="68.656"/>
</g>
<path style="fill:#3E4347;" d="M318.216,13.296v47.168H298.28V30.128h-84.608v30.336h-19.936V13.296
	C193.736,5.952,199.688,0,207.032,0h97.888C312.264,0,318.216,5.952,318.216,13.296z"/>
<path style="fill:#E24B4B;" d="M405.56,140.976v319.888c0,16.096-13.136,29.232-29.408,29.232H135.816
	c-16.288,0-29.408-13.136-29.408-29.232V140.976c0-16.288,13.136-29.424,29.408-29.424h240.336
	C392.424,111.552,405.56,124.688,405.56,140.976z"/>
<g>
	<path style="fill:#D03F3F;" d="M359.624,210.656v180.336c0,5.872-4.768,10.64-10.64,10.64s-10.64-4.768-10.64-10.64V210.656
		c0-5.872,4.768-10.64,10.64-10.64C354.872,200.016,359.624,204.784,359.624,210.656z"/>
	<path style="fill:#D03F3F;" d="M297.608,188.496v224.64c0,5.872-4.768,10.64-10.64,10.64s-10.64-4.768-10.64-10.64v-224.64
		c0-5.872,4.768-10.64,10.64-10.64C292.84,177.872,297.608,182.624,297.608,188.496z"/>
	<path style="fill:#D03F3F;" d="M235.592,188.496v224.64c0,5.872-4.768,10.64-10.64,10.64c-5.872,0-10.64-4.768-10.64-10.64v-224.64
		c0-5.872,4.768-10.64,10.64-10.64C230.824,177.872,235.592,182.624,235.592,188.496z"/>
	<path style="fill:#D03F3F;" d="M173.576,210.656v180.336c0,5.872-4.768,10.64-10.64,10.64c-5.872,0-10.64-4.768-10.64-10.64
		V210.656c0-5.872,4.768-10.64,10.64-10.64C168.808,200.016,173.576,204.784,173.576,210.656z"/>
</g>
<g>
	<path style="fill:#3E4347;" d="M165.992,111.552L165.992,111.552c0,12.768-10.352,23.12-23.12,23.12h-7.024
		c-3.472,0-6.288,2.816-6.288,6.288V148c0,12.768-10.352,23.12-23.12,23.12l0,0v-30.144c0-16.24,13.168-29.424,29.424-29.424
		H165.992z"/>
	<path style="fill:#3E4347;" d="M165.992,490.08L165.992,490.08h-30.144c-16.24,0-29.424-13.168-29.424-29.424v-30.16l0,0
		c12.768,0,23.12,10.352,23.12,23.12v7.216c0,3.328,2.768,6.112,6.288,6.112h7.04C155.64,466.96,165.992,477.312,165.992,490.08z"/>
	<path style="fill:#3E4347;" d="M405.592,140.976v30.16l0,0c-12.768,0-23.12-10.352-23.12-23.12v-7.04
		c0-3.472-2.816-6.288-6.288-6.288h-7.024c-12.768,0-23.12-10.352-23.12-23.12l0,0h30.16
		C392.424,111.552,405.592,124.72,405.592,140.976z"/>
	<path style="fill:#3E4347;" d="M405.592,430.512v30.16c0,16.24-13.168,29.424-29.408,29.424h-30.16l0,0
		c0-12.768,10.352-23.12,23.12-23.12h7.024c3.52,0,6.288-2.768,6.288-6.112v-7.216C382.456,440.864,392.808,430.512,405.592,430.512
		L405.592,430.512z"/>
</g>
<g style="opacity:0.05;">
	<path style="fill:#FFFFFF;" d="M405.592,140.96V460.8c0,16.16-13.12,29.28-29.44,29.28h-240.32c-7.52,0-14.4-2.72-19.52-7.68
		c110.88,12.64,223.68-92.8,257.28-244.32c9.6-43.52,11.84-86.4,7.36-126.08C395.032,114.24,405.592,126.24,405.592,140.96z"/>
</g>
<g>
</g>
<g>
</g>
<g>
</g>
<g>
</g>
<g>
</g>
<g>
</g>
<g>
</g>
<g>
</g>
<g>
</g>
<g>
</g>
<g>
</g>
<g>
</g>
<g>
</g>
<g>
</g>
<g>
</g>
</svg>
